<mxfile host="app.diagrams.net" modified="2023-05-25T22:29:54.386Z" agent="Mozilla/5.0 (Windows NT 10.0; Win64; x64) AppleWebKit/537.36 (KHTML, like Gecko) Chrome/113.0.0.0 Safari/537.36" etag="daVT8l20yuA57HqX7RuS" version="21.3.4" type="device">
  <diagram name="Page-1" id="zVadCjI5g_rGlCF8mQK7">
    <mxGraphModel dx="794" dy="430" grid="1" gridSize="10" guides="1" tooltips="1" connect="1" arrows="1" fold="1" page="1" pageScale="1" pageWidth="827" pageHeight="1169" math="0" shadow="0">
      <root>
        <mxCell id="0" />
        <mxCell id="1" parent="0" />
        <mxCell id="JmkYV_fNIc52OPQP1UtV-1" value="Datasets" style="shape=cylinder3;whiteSpace=wrap;html=1;boundedLbl=1;backgroundOutline=1;size=15;fillColor=#A8DADC;strokeColor=#457B9D;fontStyle=1;labelBackgroundColor=none;fontColor=#1D3557;rounded=0;fontSize=13;" vertex="1" parent="1">
          <mxGeometry x="390" y="450" width="70" height="100" as="geometry" />
        </mxCell>
        <mxCell id="JmkYV_fNIc52OPQP1UtV-2" value="Business Understanding" style="rounded=0;whiteSpace=wrap;html=1;fillColor=#A8DADC;strokeColor=#457B9D;fontStyle=1;labelBackgroundColor=none;fontColor=#1D3557;fontSize=13;" vertex="1" parent="1">
          <mxGeometry x="180" y="330" width="170" height="60" as="geometry" />
        </mxCell>
        <mxCell id="JmkYV_fNIc52OPQP1UtV-3" value="Data Understanding" style="rounded=0;whiteSpace=wrap;html=1;fillColor=#A8DADC;strokeColor=#457B9D;fontStyle=1;labelBackgroundColor=none;fontColor=#1D3557;fontSize=13;" vertex="1" parent="1">
          <mxGeometry x="460" y="330" width="170" height="60" as="geometry" />
        </mxCell>
        <mxCell id="JmkYV_fNIc52OPQP1UtV-4" value="Data Preparation&amp;nbsp;" style="rounded=0;whiteSpace=wrap;html=1;fillColor=#A8DADC;strokeColor=#457B9D;fontStyle=1;labelBackgroundColor=none;fontColor=#1D3557;fontSize=13;" vertex="1" parent="1">
          <mxGeometry x="508" y="450" width="170" height="60" as="geometry" />
        </mxCell>
        <mxCell id="JmkYV_fNIc52OPQP1UtV-5" value="Modeling" style="rounded=0;whiteSpace=wrap;html=1;fillColor=#A8DADC;strokeColor=#457B9D;fontStyle=1;labelBackgroundColor=none;fontColor=#1D3557;fontSize=14;" vertex="1" parent="1">
          <mxGeometry x="507" y="550" width="170" height="60" as="geometry" />
        </mxCell>
        <mxCell id="JmkYV_fNIc52OPQP1UtV-6" value="Evaluation&amp;nbsp;" style="rounded=0;whiteSpace=wrap;html=1;fillColor=#A8DADC;strokeColor=#457B9D;fontStyle=1;labelBackgroundColor=none;fontColor=#1D3557;fontSize=13;" vertex="1" parent="1">
          <mxGeometry x="310" y="660" width="170" height="60" as="geometry" />
        </mxCell>
        <mxCell id="JmkYV_fNIc52OPQP1UtV-7" value="Deployment" style="rounded=0;whiteSpace=wrap;html=1;fillColor=#A8DADC;strokeColor=#457B9D;fontStyle=1;labelBackgroundColor=none;fontColor=#1D3557;fontSize=13;" vertex="1" parent="1">
          <mxGeometry x="150" y="525" width="170" height="60" as="geometry" />
        </mxCell>
        <mxCell id="JmkYV_fNIc52OPQP1UtV-14" value="" style="endArrow=classic;html=1;rounded=0;entryX=0.75;entryY=1;entryDx=0;entryDy=0;exitX=0.5;exitY=0;exitDx=0;exitDy=0;labelBackgroundColor=none;strokeColor=#457B9D;fontColor=default;endSize=15;" edge="1" parent="1" source="JmkYV_fNIc52OPQP1UtV-6" target="JmkYV_fNIc52OPQP1UtV-2">
          <mxGeometry width="50" height="50" relative="1" as="geometry">
            <mxPoint x="410" y="620" as="sourcePoint" />
            <mxPoint x="430" y="400" as="targetPoint" />
          </mxGeometry>
        </mxCell>
        <mxCell id="JmkYV_fNIc52OPQP1UtV-20" value="" style="endArrow=classic;html=1;rounded=0;entryX=1;entryY=0.5;entryDx=0;entryDy=0;exitX=0.5;exitY=1;exitDx=0;exitDy=0;labelBackgroundColor=none;strokeColor=#457B9D;fontColor=default;endSize=14;" edge="1" parent="1" source="JmkYV_fNIc52OPQP1UtV-5" target="JmkYV_fNIc52OPQP1UtV-6">
          <mxGeometry width="50" height="50" relative="1" as="geometry">
            <mxPoint x="570" y="710" as="sourcePoint" />
            <mxPoint x="620" y="660" as="targetPoint" />
          </mxGeometry>
        </mxCell>
        <mxCell id="JmkYV_fNIc52OPQP1UtV-21" value="" style="endArrow=classic;startArrow=classic;html=1;rounded=0;exitX=0.5;exitY=0;exitDx=0;exitDy=0;entryX=0.5;entryY=1;entryDx=0;entryDy=0;labelBackgroundColor=none;strokeColor=#457B9D;fontColor=default;endSize=12;startSize=11;" edge="1" parent="1" source="JmkYV_fNIc52OPQP1UtV-5" target="JmkYV_fNIc52OPQP1UtV-4">
          <mxGeometry width="50" height="50" relative="1" as="geometry">
            <mxPoint x="560" y="560" as="sourcePoint" />
            <mxPoint x="610" y="510" as="targetPoint" />
          </mxGeometry>
        </mxCell>
        <mxCell id="JmkYV_fNIc52OPQP1UtV-22" value="" style="endArrow=classic;startArrow=classic;html=1;rounded=0;exitX=1;exitY=0.5;exitDx=0;exitDy=0;labelBackgroundColor=none;strokeColor=#457B9D;fontColor=default;endSize=11;targetPerimeterSpacing=5;startSize=11;" edge="1" parent="1" source="JmkYV_fNIc52OPQP1UtV-2">
          <mxGeometry width="50" height="50" relative="1" as="geometry">
            <mxPoint x="370" y="385" as="sourcePoint" />
            <mxPoint x="460" y="360" as="targetPoint" />
          </mxGeometry>
        </mxCell>
        <mxCell id="JmkYV_fNIc52OPQP1UtV-25" value="" style="endArrow=classic;html=1;rounded=0;entryX=0.5;entryY=0;entryDx=0;entryDy=0;exitX=0.5;exitY=1;exitDx=0;exitDy=0;labelBackgroundColor=none;strokeColor=#457B9D;fontColor=default;endSize=13;" edge="1" parent="1" source="JmkYV_fNIc52OPQP1UtV-3" target="JmkYV_fNIc52OPQP1UtV-4">
          <mxGeometry width="50" height="50" relative="1" as="geometry">
            <mxPoint x="450" y="450" as="sourcePoint" />
            <mxPoint x="500" y="400" as="targetPoint" />
          </mxGeometry>
        </mxCell>
        <mxCell id="JmkYV_fNIc52OPQP1UtV-26" value="" style="endArrow=classic;html=1;rounded=0;entryX=0.5;entryY=1;entryDx=0;entryDy=0;exitX=0;exitY=0.5;exitDx=0;exitDy=0;labelBackgroundColor=none;strokeColor=#457B9D;fontColor=default;endSize=13;" edge="1" parent="1" source="JmkYV_fNIc52OPQP1UtV-6" target="JmkYV_fNIc52OPQP1UtV-7">
          <mxGeometry width="50" height="50" relative="1" as="geometry">
            <mxPoint x="250" y="680" as="sourcePoint" />
            <mxPoint x="230" y="610" as="targetPoint" />
          </mxGeometry>
        </mxCell>
        <mxCell id="JmkYV_fNIc52OPQP1UtV-34" style="edgeStyle=elbowEdgeStyle;rounded=0;orthogonalLoop=1;jettySize=auto;elbow=vertical;html=1;exitX=0.5;exitY=1;exitDx=0;exitDy=0;strokeColor=#457B9D;fontColor=#1D3557;fillColor=#A8DADC;" edge="1" parent="1">
          <mxGeometry relative="1" as="geometry">
            <mxPoint x="424.5" y="824" as="sourcePoint" />
            <mxPoint x="424.5" y="824" as="targetPoint" />
          </mxGeometry>
        </mxCell>
        <mxCell id="JmkYV_fNIc52OPQP1UtV-35" value="" style="html=1;shadow=0;dashed=0;align=center;verticalAlign=middle;shape=mxgraph.arrows2.uTurnArrow;dy=21.5;arrowHead=43;dx2=77.33;fillColor=#b1ddf0;strokeColor=#10739e;" vertex="1" parent="1">
          <mxGeometry x="50" y="190" width="90" height="640" as="geometry" />
        </mxCell>
        <mxCell id="JmkYV_fNIc52OPQP1UtV-41" value="" style="html=1;shadow=0;dashed=0;align=center;verticalAlign=middle;shape=mxgraph.arrows2.uTurnArrow;dy=21.5;arrowHead=43;dx2=74;rotation=-180;fillColor=#b1ddf0;strokeColor=#10739e;" vertex="1" parent="1">
          <mxGeometry x="534" y="190" width="230" height="640" as="geometry" />
        </mxCell>
      </root>
    </mxGraphModel>
  </diagram>
</mxfile>
